<svg data-v-423bf9ae="" xmlns="http://www.w3.org/2000/svg" viewBox="0 0 351 90" class="iconLeft"><!----><defs data-v-423bf9ae=""><linearGradient data-v-423bf9ae="" gradientTransform="rotate(25)" id="b36e8ec3-632a-4f4e-ad51-0fc50e9ea7b2" x1="0%" y1="0%" x2="100%" y2="0%"><stop data-v-423bf9ae="" offset="0%" style="stop-color: rgb(5, 9, 34); stop-opacity: 1;"></stop><stop data-v-423bf9ae="" offset="100%" style="stop-color: rgb(110, 230, 199); stop-opacity: 1;"></stop></linearGradient></defs><!----><g data-v-423bf9ae="" id="9a133db1-58a9-4dd8-9cfd-9bcfae4d8516" fill="#ffffff" transform="matrix(9.650418281555176,0,0,9.650418281555176,110.71062469482422,-37.20875549316406)"><path d="M0.39 9.56L0.39 9.56L0.39 9.56Q0.36 9.68 0.18 9.70L0.18 9.70L0.18 9.70Q-0.01 9.69-0.01 9.49L-0.01 9.49L-0.01 9.49Q-0.01 8.96-0.04 8.41L-0.04 8.41L-0.04 8.41Q-0.06 7.87-0.01 7.33L-0.01 7.33L-0.01 7.33L-0.01 7.33Q-0.01 7.17-0.00 7.02L-0.00 7.02L-0.00 7.02Q0 6.87-0.01 6.73L-0.01 6.73L-0.07 6.21L-0.07 6.21Q-0.09 5.99 0 5.74L0 5.74L0 5.74Q0.07 5.56 0.18 5.52L0.18 5.52L0.18 5.52Q0.28 5.50 0.38 5.62L0.38 5.62L0.38 5.62Q0.48 5.72 0.53 5.80L0.53 5.80L0.53 5.80Q0.62 5.93 0.71 6.03L0.71 6.03L0.71 6.03Q0.80 6.13 0.89 6.22L0.89 6.22L0.89 6.22Q0.96 6.31 1.04 6.37L1.04 6.37L1.04 6.37Q1.12 6.44 1.20 6.52L1.20 6.52L1.20 6.52Q1.26 6.59 1.35 6.70L1.35 6.70L1.35 6.70Q1.43 6.80 1.52 6.95L1.52 6.95L1.83 7.41L1.83 7.41Q1.86 7.46 1.90 7.52L1.90 7.52L1.90 7.52Q1.93 7.58 1.99 7.66L1.99 7.66L2.00 7.67L2.00 7.67Q2.14 7.86 2.30 8.03L2.30 8.03L2.30 8.03Q2.37 8.11 2.45 8.19L2.45 8.19L2.45 8.19Q2.52 8.26 2.60 8.33L2.60 8.33L2.60 8.33Q2.68 8.42 2.78 8.39L2.78 8.39L2.78 8.39Q2.94 8.35 2.93 8.07L2.93 8.07L2.93 8.07Q2.93 8.00 2.92 7.93L2.92 7.93L2.92 7.93Q2.91 7.85 2.91 7.78L2.91 7.78L2.91 7.78Q2.91 7.72 2.90 7.67L2.90 7.67L2.90 7.67Q2.89 7.62 2.89 7.56L2.89 7.56L2.89 7.56Q2.89 7.53 2.89 7.50L2.89 7.50L2.89 7.50Q2.88 7.46 2.88 7.42L2.88 7.42L2.88 7.42Q2.91 6.82 2.84 6.30L2.84 6.30L2.84 6.30Q2.84 6.27 2.84 6.19L2.84 6.19L2.84 6.19Q2.84 6.11 2.85 5.99L2.85 5.99L2.85 5.99Q2.86 5.84 2.89 5.67L2.89 5.67L2.89 5.67Q2.91 5.42 3.11 5.42L3.11 5.42L3.11 5.42Q3.33 5.42 3.33 5.68L3.33 5.68L3.33 5.68Q3.34 5.89 3.35 6.11L3.35 6.11L3.35 6.11Q3.36 6.32 3.36 6.54L3.36 6.54L3.36 6.54Q3.36 6.85 3.34 7.16L3.34 7.16L3.34 7.16Q3.32 7.48 3.34 7.79L3.34 7.79L3.34 7.79Q3.35 8.00 3.35 8.21L3.35 8.21L3.35 8.21Q3.34 8.42 3.34 8.62L3.34 8.62L3.34 8.62Q3.34 8.74 3.34 8.85L3.34 8.85L3.34 8.85Q3.34 8.96 3.34 9.06L3.34 9.06L3.34 9.34L3.34 9.34Q3.34 9.38 3.33 9.42L3.33 9.42L3.33 9.42Q3.33 9.46 3.33 9.50L3.33 9.50L3.33 9.50Q3.32 9.50 3.32 9.51L3.32 9.51L3.32 9.51Q3.32 9.52 3.32 9.52L3.32 9.52L3.32 9.52Q3.24 9.62 3.08 9.62L3.08 9.62L3.08 9.62Q2.90 9.63 2.80 9.50L2.80 9.50L2.80 9.50Q2.70 9.37 2.61 9.22L2.61 9.22L2.61 9.22Q2.53 9.07 2.43 8.93L2.43 8.93L2.43 8.93Q2.30 8.76 2.16 8.58L2.16 8.58L2.16 8.58Q2.01 8.39 1.83 8.18L1.83 8.18L1.83 8.18Q1.76 8.10 1.64 7.90L1.64 7.90L1.40 7.52L1.40 7.52Q1.31 7.38 1.22 7.24L1.22 7.24L1.22 7.24Q1.13 7.10 1.04 6.97L1.04 6.97L1.04 6.97Q1.00 6.92 0.95 6.87L0.95 6.87L0.95 6.87Q0.90 6.81 0.85 6.77L0.85 6.77L0.85 6.77Q0.79 6.73 0.72 6.71L0.72 6.71L0.72 6.71Q0.66 6.69 0.59 6.71L0.59 6.71L0.59 6.71Q0.40 6.76 0.42 7.08L0.42 7.08L0.42 7.08Q0.42 7.31 0.43 7.52L0.43 7.52L0.43 7.52Q0.43 7.72 0.44 7.90L0.44 7.90L0.44 7.90Q0.46 8.05 0.44 8.19L0.44 8.19L0.44 8.19Q0.42 8.33 0.42 8.47L0.42 8.47L0.42 9.00L0.42 9.00Q0.42 9.17 0.41 9.31L0.41 9.31L0.41 9.31Q0.40 9.45 0.39 9.56ZM6.89 5.58L6.89 5.58L6.89 5.58Q6.94 5.56 7.01 5.55L7.01 5.55L7.01 5.55Q7.08 5.55 7.15 5.56L7.15 5.56L7.15 5.56Q7.22 5.58 7.28 5.61L7.28 5.61L7.28 5.61Q7.33 5.65 7.36 5.69L7.36 5.69L7.36 5.69Q7.62 6.21 7.81 6.73L7.81 6.73L7.81 6.73Q8.01 7.25 8.27 7.76L8.27 7.76L8.27 7.76Q8.47 8.15 8.63 8.58L8.63 8.58L8.63 8.58Q8.80 9.00 9.02 9.43L9.02 9.43L9.03 9.46L9.04 9.47L9.04 9.47Q9.15 9.67 9.23 9.81L9.23 9.81L9.23 9.81Q9.32 9.95 9.37 10.02L9.37 10.02L9.37 10.02Q9.86 10.67 10.37 10.96L10.37 10.96L10.37 10.96Q10.88 11.25 11.50 11.21L11.50 11.21L11.50 11.20L11.51 11.20L11.51 11.20Q11.72 11.20 11.74 11.40L11.74 11.40L11.74 11.40Q11.75 11.61 11.55 11.62L11.55 11.62L11.55 11.62Q10.68 11.68 10.01 11.25L10.01 11.25L10.01 11.25Q9.54 10.94 9.20 10.48L9.20 10.48L9.20 10.48Q8.87 10.01 8.63 9.53L8.63 9.53L8.63 9.53Q8.56 9.37 8.48 9.21L8.48 9.21L8.48 9.21Q8.41 9.05 8.31 8.91L8.31 8.91L8.31 8.91Q8.24 8.78 8.14 8.70L8.14 8.70L8.14 8.70Q8.05 8.61 7.95 8.56L7.95 8.56L7.95 8.56Q7.85 8.51 7.72 8.48L7.72 8.48L7.72 8.48Q7.59 8.46 7.44 8.46L7.44 8.46L7.44 8.46Q7.32 8.46 7.15 8.48L7.15 8.48L7.15 8.48Q6.97 8.50 6.75 8.51L6.75 8.51L6.62 8.52L6.62 8.52Q6.47 8.53 6.29 8.56L6.29 8.56L6.29 8.56Q6.12 8.59 6.00 8.70L6.00 8.70L6.00 8.70Q5.95 8.74 5.90 8.81L5.90 8.81L5.90 8.81Q5.86 8.88 5.82 8.98L5.82 8.98L5.82 8.98Q5.79 9.06 5.76 9.16L5.76 9.16L5.76 9.16Q5.73 9.26 5.69 9.37L5.69 9.37L5.69 9.37Q5.67 9.43 5.61 9.61L5.61 9.61L5.61 9.61Q5.43 9.82 5.33 9.78L5.33 9.78L5.33 9.78Q5.27 9.75 5.25 9.64L5.25 9.64L5.25 9.64Q5.24 9.54 5.25 9.45L5.25 9.45L5.25 9.45Q5.25 9.36 5.28 9.26L5.28 9.26L5.28 9.26Q5.41 8.89 5.57 8.52L5.57 8.52L5.57 8.52Q5.74 8.15 5.91 7.78L5.91 7.78L5.91 7.78Q6.04 7.49 6.17 7.21L6.17 7.21L6.17 7.21Q6.30 6.92 6.42 6.62L6.42 6.62L6.42 6.62Q6.47 6.48 6.52 6.34L6.52 6.34L6.52 6.34Q6.58 6.20 6.64 6.06L6.64 6.06L6.75 5.81L6.75 5.81Q6.84 5.63 6.89 5.58ZM7.10 6.49L7.10 6.49L7.10 6.49Q6.97 6.49 6.90 6.60L6.90 6.60L6.90 6.60Q6.86 6.64 6.81 6.75L6.81 6.75L6.81 6.75Q6.75 6.84 6.70 6.96L6.70 6.96L6.70 6.96Q6.66 7.08 6.61 7.21L6.61 7.21L6.61 7.21Q6.52 7.49 6.49 7.67L6.49 7.67L6.49 7.67Q6.44 8.00 6.60 8.09L6.60 8.09L6.60 8.09Q6.65 8.12 6.69 8.12L6.69 8.12L6.69 8.12Q6.77 8.13 6.87 8.13L6.87 8.13L6.87 8.13Q6.98 8.13 7.12 8.13L7.12 8.13L7.12 8.13Q7.23 8.13 7.39 8.13L7.39 8.13L7.39 8.13Q7.55 8.12 7.66 8.09L7.66 8.09L7.76 8.06L7.79 7.96L7.79 7.96Q7.82 7.84 7.77 7.67L7.77 7.67L7.77 7.67Q7.72 7.51 7.62 7.28L7.62 7.28L7.62 7.28Q7.51 7.05 7.43 6.88L7.43 6.88L7.43 6.88Q7.35 6.71 7.29 6.60L7.29 6.60L7.29 6.60Q7.22 6.48 7.10 6.49ZM13.86 5.86L13.86 5.87L13.88 5.89L13.88 5.89Q13.95 5.97 14.02 6.08L14.02 6.08L14.02 6.08Q14.08 6.19 14.14 6.33L14.14 6.33L14.14 6.33Q14.18 6.43 14.23 6.51L14.23 6.51L14.23 6.51Q14.28 6.60 14.31 6.69L14.31 6.69L14.31 6.69Q14.37 6.84 14.40 6.97L14.40 6.97L14.40 6.97Q14.42 7.09 14.43 7.20L14.43 7.20L14.43 7.20Q14.44 7.31 14.43 7.43L14.43 7.43L14.43 7.43Q14.43 7.56 14.41 7.72L14.41 7.72L14.41 7.72Q14.40 7.85 14.40 7.99L14.40 7.99L14.40 7.99Q14.40 8.12 14.37 8.26L14.37 8.26L14.37 8.26Q14.33 8.44 14.26 8.61L14.26 8.61L14.26 8.61Q14.19 8.78 14.10 8.94L14.10 8.94L14.10 8.94Q13.92 9.21 13.62 9.44L13.62 9.44L13.56 9.47L13.56 9.47Q13.49 9.52 13.43 9.53L13.43 9.53L13.43 9.53Q13.36 9.56 13.29 9.59L13.29 9.59L13.29 9.59Q13.22 9.61 13.16 9.63L13.16 9.63L13.16 9.63Q12.80 9.71 12.43 9.70L12.43 9.70L12.43 9.70Q12.05 9.69 11.70 9.69L11.70 9.69L11.70 9.69Q11.57 9.69 11.38 9.70L11.38 9.70L11.38 9.70Q11.20 9.70 11.09 9.63L11.09 9.63L11.09 9.63Q10.99 9.58 10.96 9.45L10.96 9.45L10.96 9.45Q10.96 9.42 10.96 9.33L10.96 9.33L10.96 9.33Q10.96 9.00 10.96 8.68L10.96 8.68L10.96 8.68Q10.97 8.35 10.99 8.03L10.99 8.03L10.99 8.03Q11.00 7.86 10.98 7.69L10.98 7.69L10.98 7.69Q10.96 7.51 10.96 7.34L10.96 7.34L10.96 6.63L10.96 6.06L10.96 6.06Q10.96 5.65 11.06 5.52L11.06 5.52L11.06 5.52Q11.17 5.41 11.40 5.41L11.40 5.41L11.40 5.41Q11.51 5.42 11.61 5.42L11.61 5.42L11.61 5.42Q11.71 5.41 11.79 5.41L11.79 5.41L11.79 5.41Q12.04 5.41 12.31 5.42L12.31 5.42L12.31 5.42Q12.58 5.43 12.87 5.45L12.87 5.45L12.87 5.45Q13.43 5.48 13.86 5.86L13.86 5.86ZM12.97 5.89L12.96 5.89L12.95 5.89L12.95 5.89Q12.86 5.87 12.72 5.87L12.72 5.87L12.72 5.87Q12.58 5.87 12.39 5.89L12.39 5.89L12.39 5.89Q12.06 5.91 11.87 5.88L11.87 5.88L11.87 5.88Q11.57 5.83 11.50 5.88L11.50 5.88L11.50 5.88Q11.40 5.95 11.40 6.17L11.40 6.17L11.40 6.17Q11.40 6.39 11.41 6.60L11.41 6.60L11.41 6.60Q11.42 6.82 11.40 7.02L11.40 7.02L11.40 7.02Q11.37 7.53 11.38 8.04L11.38 8.04L11.38 8.04Q11.39 8.54 11.39 9.04L11.39 9.04L11.39 9.04Q11.39 9.15 11.47 9.22L11.47 9.22L11.47 9.22Q11.55 9.30 11.79 9.26L11.79 9.26L11.79 9.26Q11.80 9.26 11.81 9.26L11.81 9.26L11.81 9.26Q11.82 9.26 11.83 9.26L11.83 9.26L11.83 9.26Q11.96 9.25 12.08 9.25L12.08 9.25L12.08 9.25Q12.20 9.26 12.31 9.26L12.31 9.26L12.31 9.26Q12.72 9.29 13.10 9.22L13.10 9.22L13.10 9.22Q13.48 9.14 13.69 8.72L13.69 8.72L13.69 8.72Q13.79 8.54 13.86 8.37L13.86 8.37L13.86 8.37Q13.93 8.20 13.97 8.02L13.97 8.02L13.97 8.02Q14.01 7.85 14.02 7.66L14.02 7.66L14.02 7.66Q14.03 7.48 14.01 7.26L14.01 7.26L14.01 7.26Q13.97 6.84 13.74 6.42L13.74 6.42L13.74 6.42Q13.62 6.22 13.43 6.09L13.43 6.09L13.43 6.09Q13.23 5.96 12.97 5.89L12.97 5.89ZM17.88 5.58L17.88 5.58L17.88 5.58Q17.92 5.56 18.00 5.55L18.00 5.55L18.00 5.55Q18.07 5.55 18.14 5.56L18.14 5.56L18.14 5.56Q18.20 5.58 18.26 5.61L18.26 5.61L18.26 5.61Q18.32 5.65 18.35 5.69L18.35 5.69L18.35 5.69Q18.60 6.21 18.80 6.73L18.80 6.73L18.80 6.73Q19.00 7.25 19.26 7.76L19.26 7.76L19.26 7.76Q19.46 8.15 19.62 8.58L19.62 8.58L19.62 8.58Q19.78 9.00 20.00 9.43L20.00 9.43L20.02 9.46L20.02 9.47L20.02 9.47Q20.13 9.67 20.22 9.81L20.22 9.81L20.22 9.81Q20.30 9.95 20.36 10.02L20.36 10.02L20.36 10.02Q20.84 10.67 21.36 10.96L21.36 10.96L21.36 10.96Q21.86 11.25 22.49 11.21L22.49 11.21L22.49 11.20L22.50 11.20L22.50 11.20Q22.70 11.20 22.73 11.40L22.73 11.40L22.73 11.40Q22.74 11.61 22.53 11.62L22.53 11.62L22.53 11.62Q21.67 11.68 21 11.25L21 11.25L21 11.25Q20.52 10.94 20.19 10.48L20.19 10.48L20.19 10.48Q19.85 10.01 19.62 9.53L19.62 9.53L19.62 9.53Q19.54 9.37 19.47 9.21L19.47 9.21L19.47 9.21Q19.39 9.05 19.30 8.91L19.30 8.91L19.30 8.91Q19.22 8.78 19.13 8.70L19.13 8.70L19.13 8.70Q19.03 8.61 18.94 8.56L18.94 8.56L18.94 8.56Q18.83 8.51 18.71 8.48L18.71 8.48L18.71 8.48Q18.58 8.46 18.43 8.46L18.43 8.46L18.43 8.46Q18.31 8.46 18.13 8.48L18.13 8.48L18.13 8.48Q17.96 8.50 17.74 8.51L17.74 8.51L17.61 8.52L17.61 8.52Q17.45 8.53 17.28 8.56L17.28 8.56L17.28 8.56Q17.10 8.59 16.98 8.70L16.98 8.70L16.98 8.70Q16.93 8.74 16.89 8.81L16.89 8.81L16.89 8.81Q16.84 8.88 16.81 8.98L16.81 8.98L16.81 8.98Q16.78 9.06 16.74 9.16L16.74 9.16L16.74 9.16Q16.71 9.26 16.68 9.37L16.68 9.37L16.68 9.37Q16.65 9.43 16.60 9.61L16.60 9.61L16.60 9.61Q16.42 9.82 16.31 9.78L16.31 9.78L16.31 9.78Q16.26 9.75 16.24 9.64L16.24 9.64L16.24 9.64Q16.23 9.54 16.23 9.45L16.23 9.45L16.23 9.45Q16.24 9.36 16.27 9.26L16.27 9.26L16.27 9.26Q16.39 8.89 16.56 8.52L16.56 8.52L16.56 8.52Q16.72 8.15 16.89 7.78L16.89 7.78L16.89 7.78Q17.02 7.49 17.15 7.21L17.15 7.21L17.15 7.21Q17.28 6.92 17.40 6.62L17.40 6.62L17.40 6.62Q17.46 6.48 17.51 6.34L17.51 6.34L17.51 6.34Q17.56 6.20 17.62 6.06L17.62 6.06L17.73 5.81L17.73 5.81Q17.82 5.63 17.88 5.58ZM18.09 6.49L18.09 6.49L18.09 6.49Q17.96 6.49 17.89 6.60L17.89 6.60L17.89 6.60Q17.84 6.64 17.79 6.75L17.79 6.75L17.79 6.75Q17.73 6.84 17.69 6.96L17.69 6.96L17.69 6.96Q17.64 7.08 17.60 7.21L17.60 7.21L17.60 7.21Q17.51 7.49 17.47 7.67L17.47 7.67L17.47 7.67Q17.42 8.00 17.59 8.09L17.59 8.09L17.59 8.09Q17.64 8.12 17.68 8.12L17.68 8.12L17.68 8.12Q17.75 8.13 17.86 8.13L17.86 8.13L17.86 8.13Q17.96 8.13 18.11 8.13L18.11 8.13L18.11 8.13Q18.22 8.13 18.38 8.13L18.38 8.13L18.38 8.13Q18.54 8.12 18.65 8.09L18.65 8.09L18.74 8.06L18.77 7.96L18.77 7.96Q18.81 7.84 18.76 7.67L18.76 7.67L18.76 7.67Q18.71 7.51 18.60 7.28L18.60 7.28L18.60 7.28Q18.49 7.05 18.41 6.88L18.41 6.88L18.41 6.88Q18.33 6.71 18.28 6.60L18.28 6.60L18.28 6.60Q18.20 6.48 18.09 6.49ZM21.72 6.24L21.72 6.24L21.72 6.24Q21.77 6.36 21.80 6.48L21.80 6.48L21.80 6.48Q21.83 6.60 21.86 6.73L21.86 6.73L21.86 6.73Q21.90 6.85 21.93 6.97L21.93 6.97L21.93 6.97Q21.97 7.10 22.03 7.21L22.03 7.21L22.03 7.21Q22.16 7.42 22.25 7.64L22.25 7.64L22.25 7.64Q22.34 7.85 22.44 8.07L22.44 8.07L22.59 8.37L22.59 8.37Q22.70 8.55 22.85 8.57L22.85 8.57L22.85 8.57Q23.06 8.59 23.21 8.24L23.21 8.24L23.21 8.24Q23.30 8.05 23.38 7.84L23.38 7.84L23.38 7.84Q23.45 7.63 23.52 7.42L23.52 7.42L23.52 7.42Q23.53 7.40 23.56 7.34L23.56 7.34L23.56 7.34Q23.59 7.27 23.66 7.16L23.66 7.16L23.66 7.16Q23.70 7.08 23.74 7.02L23.74 7.02L23.74 7.02Q23.78 6.95 23.81 6.90L23.81 6.90L23.81 6.90Q23.97 6.58 24.12 6.25L24.12 6.25L24.12 6.25Q24.28 5.91 24.40 5.56L24.40 5.56L24.40 5.56Q24.42 5.47 24.48 5.45L24.48 5.45L24.48 5.45Q24.53 5.43 24.71 5.50L24.71 5.50L24.71 5.50Q24.83 5.57 24.84 5.61L24.84 5.61L24.84 5.61Q24.86 5.67 24.81 5.77L24.81 5.77L24.81 5.77Q24.76 5.87 24.74 5.93L24.74 5.93L24.67 6.05L24.67 6.05Q24.61 6.16 24.56 6.27L24.56 6.27L24.56 6.27Q24.51 6.37 24.46 6.47L24.46 6.47L24.46 6.47Q24.36 6.66 24.29 6.85L24.29 6.85L24.29 6.85Q24.22 7.04 24.14 7.23L24.14 7.23L24.14 7.23Q23.95 7.64 23.77 8.04L23.77 8.04L23.77 8.04Q23.58 8.45 23.36 8.84L23.36 8.84L23.36 8.84Q23.27 9.00 23.20 9.21L23.20 9.21L23.20 9.21Q23.13 9.45 23.00 9.54L23.00 9.54L23.00 9.54Q22.95 9.58 22.88 9.59L22.88 9.59L22.88 9.59Q22.84 9.60 22.76 9.57L22.76 9.57L22.76 9.57Q22.71 9.55 22.67 9.50L22.67 9.50L22.67 9.50Q22.63 9.45 22.60 9.39L22.60 9.39L22.60 9.39Q22.57 9.33 22.54 9.27L22.54 9.27L22.54 9.27Q22.52 9.21 22.50 9.16L22.50 9.16L22.50 9.16Q22.35 8.93 22.22 8.65L22.22 8.65L22.22 8.65Q22.10 8.37 21.96 8.04L21.96 8.04L21.96 8.04Q21.85 7.82 21.77 7.59L21.77 7.59L21.77 7.59Q21.68 7.37 21.57 7.15L21.57 7.15L21.57 7.15Q21.52 7.08 21.42 6.77L21.42 6.77L21.42 6.77Q21.41 6.73 21.39 6.65L21.39 6.65L21.39 6.65Q21.37 6.58 21.33 6.49L21.33 6.49L21.33 6.49Q21.27 6.34 21.20 6.21L21.20 6.21L21.20 6.21Q21.13 6.07 21.06 5.93L21.06 5.93L21.06 5.93Q20.95 5.67 20.95 5.61L20.95 5.61L20.95 5.61Q20.97 5.48 21.09 5.43L21.09 5.43L21.09 5.43Q21.29 5.35 21.39 5.59L21.39 5.59L21.39 5.59Q21.46 5.76 21.55 5.92L21.55 5.92L21.55 5.92Q21.64 6.08 21.72 6.24Z"></path></g><!----><g data-v-423bf9ae="" id="171d052b-95c8-4b45-bd67-4cee645be258" transform="matrix(2.8125,0,0,2.8125,0,0)" stroke="none" fill="#ffffff"><path d="M16 1c8.271 0 15 6.729 15 15s-6.729 15-15 15S1 24.271 1 16 7.729 1 16 1m0-1C7.163 0 0 7.163 0 16s7.163 16 16 16 16-7.163 16-16S24.837 0 16 0z"></path><path d="M16 7.045L24.955 16 16 24.955 7.045 16 16 7.045m0-1.414L5.631 16 16 26.369 26.369 16 16 5.631z"></path></g><!----></svg>